<svg width="238" height="32" viewBox="0 0 238 32" fill="none" xmlns="http://www.w3.org/2000/svg">
<g clip-path="url(#clip0)">
<path d="M1.66447 4.41553C8.54586 4.41553 14.0248 4.38479 14.0248 11.8849V14.1826L1.18671 6.93607L1.66447 4.41553Z" fill="#C7C5CE"/>
<path d="M26.8628 4.29272C26.8628 4.29272 14.0247 6.16008 14.0247 11.8851V14.1828L26.8628 6.92853V4.29272Z" fill="#C7C5CE"/>
<path d="M26.963 4.13127L14.5796 11.6007C14.071 11.8466 13.5624 11.6007 13.5624 11.6007L1.18671 4.13127C0.662709 3.8162 0 4.18506 0 4.79982L0.115589 22.7049C0.115589 22.9815 0.262001 23.2351 0.508591 23.3734L13.5624 31.3808C13.5624 31.3808 14.071 31.6267 14.5796 31.3808L27.6488 23.3734C27.8877 23.2351 28.0341 22.9815 28.0418 22.7049L28.1574 4.79982C28.1497 4.18506 27.4793 3.8162 26.963 4.13127Z" fill="#3D455D"/>
<path d="M28.142 4.79979L28.0264 22.7048C28.0264 22.9815 27.88 23.2351 27.6334 23.3734L14.5719 31.373L14.5796 11.6006L26.9553 4.13891C27.4793 3.81616 28.1497 4.18502 28.142 4.79979Z" fill="#2C354E"/>
<path d="M14.5719 31.373L14.5796 11.6006C14.071 11.8465 13.5625 11.6006 13.5625 11.6006L13.5547 31.373C13.5547 31.373 14.071 31.6112 14.5719 31.373Z" fill="#273044"/>
<path d="M0.0229797 8.11182L13.5546 16.3881V18.3323L0.0306857 10.1021L0.0229797 8.11182Z" fill="#F6B119"/>
<path d="M28.1265 8.11182L14.5949 16.3881V18.3323L28.1188 10.1021L28.1265 8.11182Z" fill="#F6B119"/>
<path d="M13.5547 16.3882C13.5547 16.3882 14.0248 16.734 14.595 16.3882V18.3324C14.595 18.3324 14.1327 18.6859 13.5547 18.3324V16.3882Z" fill="#E7A323"/>
<path d="M35.1699 29.0293C34.9541 28.5452 34.9541 28.0227 35.1699 27.4847L36.8421 27.039C37.0578 26.9852 37.2582 26.8469 37.4354 26.6318C37.6127 26.4166 37.7745 26.0247 37.9286 25.4483C38.075 24.8797 38.2137 24.0882 38.337 23.0661C38.4603 22.0441 38.5836 20.6839 38.7069 18.9779C38.8302 17.2719 38.9458 15.1817 39.0537 12.7073C39.1615 10.2405 39.2694 7.28199 39.3773 3.8393L36.4414 3.39359C36.2179 2.84799 36.2256 2.33312 36.4722 1.84131H44.1473C45.0489 4.5847 46.1662 7.59706 47.5148 10.8784C48.8633 14.1597 50.312 17.5947 51.8609 21.1757H52.0613C52.7702 19.3621 53.4329 17.6254 54.0571 15.9886C54.6813 14.3441 55.2746 12.738 55.8295 11.1627C56.3843 9.58736 56.9237 8.03508 57.44 6.50585C57.9563 4.97662 58.4572 3.41665 58.9504 1.84899H67.0724C67.319 2.34081 67.319 2.85567 67.0724 3.39359L64.4678 3.8393C64.306 3.87004 64.2135 4.22353 64.2058 4.89977C64.1904 5.57601 64.2135 6.49816 64.2674 7.68159C64.3214 8.86501 64.4061 10.2636 64.514 11.8927C64.6219 13.5219 64.7144 15.297 64.7991 17.2258C64.907 19.316 65.0303 21.1373 65.169 22.6972C65.3077 24.2572 65.4696 25.7019 65.6622 27.0314L68.8062 27.4771C69.0528 28.0227 69.0528 28.5375 68.8062 29.0217H59.0428C58.881 28.5375 58.881 28.015 59.0428 27.4771L60.6765 27.0314C61.0541 26.9238 61.2852 26.2475 61.37 24.9949C61.4548 23.75 61.4548 22.1055 61.37 20.0691C61.2852 18.0327 61.1542 15.712 60.9616 13.1069C60.769 10.5018 60.5917 7.78917 60.4299 4.96893H59.7749C59.2586 6.49048 58.7346 8.00434 58.2029 9.52588C57.6712 11.0474 57.1163 12.6305 56.5307 14.2903C55.945 15.9425 55.3132 17.7176 54.635 19.6004C53.9569 21.4908 53.2171 23.5579 52.4311 25.8095C51.753 26.4089 51.0133 26.7086 50.2273 26.7086C49.7341 25.5405 49.1947 24.2572 48.5936 22.8663C47.9925 21.4677 47.3992 20.0461 46.7981 18.5937C46.1971 17.1413 45.6114 15.712 45.0258 14.298C44.4401 12.8917 43.9238 11.57 43.4769 10.3481C43.0299 9.12629 42.6446 8.05045 42.3364 7.11293C42.0204 6.17541 41.8432 5.46843 41.7893 4.97662L41.1805 5.01504C41.1497 5.56064 41.1111 6.29836 41.0572 7.23588C41.0033 8.1734 40.957 9.24156 40.9108 10.448C40.8723 11.6545 40.826 12.9609 40.7875 14.3518C40.749 15.7504 40.695 17.172 40.6411 18.6244C40.5871 20.0768 40.5409 21.5215 40.4947 22.9585C40.4561 24.3955 40.4022 25.7557 40.3483 27.0314L42.059 27.4771C42.2747 28.0227 42.2747 28.5375 42.059 29.0217H35.1699V29.0293Z" fill="#2C354E"/>
<path d="M67.7737 20.5225C67.7737 18.7627 68.0974 17.2027 68.7524 15.8426C69.4074 14.4824 70.2319 13.3528 71.2183 12.446C72.2124 11.5392 73.3143 10.8476 74.5241 10.3712C75.734 9.89472 76.913 9.65649 78.0534 9.65649C78.8934 9.65649 79.7102 9.79482 80.5039 10.0791C81.2899 10.3635 81.9912 10.7631 82.6076 11.2933C83.2164 11.8159 83.725 12.4767 84.118 13.2759C84.511 14.0674 84.7268 14.9665 84.7499 15.9655C84.6112 16.1807 84.4185 16.3728 84.1565 16.5496C83.8945 16.7263 83.6171 16.8877 83.3166 17.0337C83.0161 17.1797 82.7078 17.318 82.3996 17.441C82.0836 17.5639 81.8062 17.6485 81.5596 17.7022L71.357 20.4072C71.5496 21.6137 71.9118 22.6357 72.4589 23.4734C73.0061 24.311 73.6379 24.9949 74.3546 25.5328C75.0713 26.0707 75.8573 26.4627 76.6972 26.7086C77.5371 26.9545 78.354 27.0774 79.1477 27.0774C80.0493 27.0774 80.92 26.893 81.7831 26.5318C82.6462 26.1706 83.3936 25.7249 84.0486 25.2101C84.5649 25.479 84.8501 25.9939 84.904 26.7547C84.4417 27.1082 83.9022 27.4463 83.2935 27.769C82.6847 28.0918 82.0297 28.3838 81.3362 28.6451C80.6426 28.9064 79.926 29.1138 79.1939 29.2752C78.4619 29.4366 77.7221 29.5211 76.99 29.5211C75.6261 29.5211 74.3854 29.2983 73.2527 28.8526C72.1199 28.4069 71.1489 27.7921 70.3321 27.0006C69.5153 26.2168 68.8834 25.2639 68.4365 24.1496C67.9972 23.0277 67.7737 21.8212 67.7737 20.5225ZM73.4915 12.8686C72.9444 13.3605 72.4512 14.0136 72.0043 14.8436C71.5574 15.6735 71.3031 16.8185 71.2491 18.2786L78.6776 16.9338C80.3652 16.611 81.2052 16.2729 81.2052 15.9194C81.2052 15.4891 81.0973 15.0357 80.8815 14.5746C80.6658 14.1135 80.3498 13.6986 79.9414 13.3297C79.533 12.9609 79.0244 12.6688 78.4079 12.4306C77.7991 12.2001 77.1056 12.0848 76.3504 12.0848C75.7494 12.0848 75.2023 12.1617 74.7014 12.3077C74.1851 12.469 73.7844 12.6535 73.4915 12.8686Z" fill="#2C354E"/>
<path d="M101.441 25.4022C101.711 25.5943 101.903 25.8172 102.011 26.0708C102.119 26.3321 102.204 26.6087 102.258 26.9084C101.795 27.2849 101.24 27.6384 100.585 27.9689C99.9305 28.2916 99.26 28.576 98.5665 28.7988C97.873 29.0293 97.1949 29.2061 96.5244 29.329C95.854 29.452 95.2761 29.5135 94.7906 29.5135C93.3496 29.5135 92.0627 29.2676 90.9376 28.7834C89.8049 28.2916 88.8493 27.6461 88.0633 26.8316C87.2773 26.017 86.6686 25.0718 86.2447 24.0036C85.8209 22.9355 85.6129 21.8135 85.6129 20.6455C85.6129 18.6629 85.9365 16.9799 86.5915 15.5813C87.2465 14.1827 88.0787 13.0531 89.1036 12.1848C90.1208 11.3164 91.2613 10.6863 92.5097 10.2943C93.758 9.90244 94.9833 9.70264 96.1854 9.70264C96.7864 9.73338 97.4029 9.82559 98.0425 9.98697C98.6821 10.1483 99.26 10.3789 99.7763 10.6786C100.293 10.9783 100.716 11.3395 101.04 11.7544C101.364 12.1771 101.526 12.6689 101.526 13.2375C101.526 13.6218 101.325 14.0214 100.932 14.4594C100.539 14.8974 99.9767 15.1817 99.2369 15.3124L98.9903 15.2278C98.5511 14.1981 97.8961 13.422 97.0099 12.9071C96.1237 12.3922 95.1682 12.131 94.1356 12.131C93.7272 12.131 93.2725 12.1617 92.7717 12.2309C92.2708 12.3 91.8932 12.4153 91.6466 12.5767C91.0455 12.984 90.4676 13.6756 89.9128 14.6515C89.3579 15.6274 89.0728 16.9185 89.0728 18.5168C89.0728 20.0384 89.3117 21.3294 89.7895 22.4052C90.2672 23.4811 90.8683 24.3571 91.6081 25.0487C92.3401 25.7403 93.1415 26.2475 94.0123 26.578C94.8831 26.9084 95.7153 27.0621 96.5013 27.0621C97.5339 27.0621 98.474 26.8777 99.314 26.5165C100.162 26.1553 100.871 25.7865 101.441 25.4022Z" fill="#2C354E"/>
<path d="M117.931 25.4022C118.201 25.5943 118.394 25.8172 118.502 26.0708C118.61 26.3321 118.694 26.6087 118.748 26.9084C118.286 27.2849 117.731 27.6384 117.076 27.9689C116.421 28.2916 115.751 28.576 115.057 28.7988C114.364 29.0217 113.685 29.2061 113.015 29.329C112.345 29.452 111.767 29.5135 111.281 29.5135C109.84 29.5135 108.553 29.2676 107.428 28.7834C106.295 28.2916 105.34 27.6461 104.554 26.8316C103.768 26.017 103.159 25.0718 102.735 24.0036C102.312 22.9355 102.103 21.8135 102.103 20.6455C102.103 18.6629 102.427 16.9799 103.082 15.5813C103.737 14.1827 104.569 13.0531 105.594 12.1848C106.611 11.3164 107.752 10.6863 109 10.2943C110.249 9.90244 111.474 9.70264 112.676 9.70264C113.277 9.73338 113.894 9.82559 114.533 9.98697C115.173 10.1483 115.751 10.3789 116.267 10.6786C116.783 10.9783 117.207 11.3395 117.531 11.7544C117.854 12.1771 118.016 12.6689 118.016 13.2375C118.016 13.6218 117.816 14.0214 117.423 14.4594C117.03 14.8974 116.467 15.1817 115.728 15.3124L115.481 15.2278C115.042 14.1981 114.387 13.422 113.501 12.9071C112.614 12.3922 111.659 12.131 110.626 12.131C110.218 12.131 109.763 12.1617 109.262 12.2309C108.761 12.3 108.384 12.4153 108.137 12.5767C107.536 12.984 106.958 13.6756 106.403 14.6515C105.849 15.6274 105.563 16.9185 105.563 18.5168C105.563 20.0384 105.802 21.3294 106.28 22.4052C106.758 23.4811 107.359 24.3571 108.099 25.0487C108.831 25.7403 109.632 26.2475 110.503 26.578C111.374 26.9084 112.206 27.0621 112.992 27.0621C114.025 27.0621 114.965 26.8777 115.805 26.5165C116.652 26.1553 117.353 25.7865 117.931 25.4022Z" fill="#2C354E"/>
<path d="M137.312 26.9084C137.505 27.3618 137.505 27.7767 137.312 28.1456L133.883 29.3444C133.066 29.3444 132.465 29.0447 132.064 28.4453C131.664 27.8459 131.402 27.0774 131.271 26.1245C130.777 26.5318 130.192 26.9391 129.498 27.3464C128.805 27.7537 128.111 28.1225 127.418 28.4453C126.724 28.768 126.077 29.0293 125.476 29.2214C124.875 29.4135 124.397 29.5057 124.05 29.5057C123.395 29.5057 122.802 29.3905 122.278 29.1599C121.746 28.9294 121.291 28.622 120.914 28.2455C120.536 27.8689 120.236 27.4309 120.012 26.9468C119.796 26.455 119.689 25.9401 119.689 25.4022C119.689 24.0497 120.066 22.9354 120.829 22.0671C121.592 21.1987 122.856 20.5225 124.62 20.0307L126.948 19.4236C127.518 19.2622 128.242 19.0701 129.113 18.8549C129.984 18.6398 130.747 18.463 131.402 18.3247C131.432 18.025 131.44 17.7253 131.44 17.4256C131.44 17.1259 131.44 16.8262 131.44 16.5265C131.44 14.9742 131.116 13.7908 130.485 12.9839C129.845 12.177 129.005 11.7774 127.972 11.7774C127.811 11.7774 127.572 11.7928 127.256 11.8159C126.94 11.8466 126.608 11.9004 126.254 11.9772C125.9 12.0618 125.545 12.1617 125.191 12.2846C124.836 12.4076 124.52 12.5536 124.25 12.715V15.7119C123.896 16.0962 123.503 16.3498 123.064 16.4727C122.632 16.5957 122.231 16.6187 121.862 16.5342C121.492 16.4497 121.183 16.2575 120.921 15.9425C120.659 15.6274 120.536 15.2278 120.536 14.7437C120.536 14.1212 120.783 13.4988 121.268 12.8917C121.761 12.2846 122.447 11.739 123.326 11.2626C124.212 10.7861 125.245 10.4019 126.424 10.1022C127.61 9.8025 128.889 9.65649 130.276 9.65649C131.039 9.65649 131.687 9.82555 132.234 10.1637C132.781 10.5018 133.228 10.9706 133.582 11.57C133.937 12.1693 134.199 12.884 134.376 13.7139C134.553 14.5439 134.638 15.4353 134.638 16.3882C134.638 17.3949 134.584 18.5937 134.476 19.9769C134.368 21.3601 134.314 22.7126 134.314 24.0113C134.314 24.8796 134.438 25.5712 134.684 26.0707C134.931 26.5779 135.308 26.8546 135.825 26.9084H137.312V26.9084ZM131.155 23.6732C131.155 23.0814 131.163 22.5128 131.178 21.9749C131.193 21.4369 131.209 20.9221 131.24 20.438C130.616 20.4917 129.853 20.5763 128.951 20.6839C128.049 20.7914 127.263 20.9144 126.585 21.045L124.667 21.4062C124.042 21.7828 123.626 22.2285 123.418 22.7433C123.218 23.2582 123.11 23.7423 123.11 24.1957C123.11 25.1409 123.357 25.8556 123.842 26.3397C124.335 26.8238 124.998 27.0697 125.838 27.0697C126.054 27.0697 126.385 27.0083 126.817 26.8853C127.248 26.7624 127.718 26.601 128.227 26.4012C128.728 26.2014 129.244 25.9478 129.76 25.6558C130.276 25.3561 130.739 25.0256 131.147 24.6414V23.6732H131.155Z" fill="#2C354E"/>
<path d="M146.089 18.855C146.089 17.3872 146.089 15.9272 146.089 14.4594C146.089 12.9917 146.081 11.5931 146.066 10.2483C146.05 8.90348 146.035 7.64321 146.004 6.45978C145.973 5.27636 145.935 4.25431 145.881 3.38595C145.257 3.43974 144.671 3.49353 144.124 3.54733C143.577 3.60112 143.045 3.65491 142.529 3.7087C142.367 3.43974 142.282 3.15541 142.282 2.85571C142.282 2.71739 142.298 2.60212 142.321 2.48685C142.351 2.37927 142.39 2.25632 142.444 2.118L146.158 1.54934C146.482 1.49554 147.052 1.43407 147.854 1.36491C148.655 1.29575 149.503 1.22658 150.381 1.15742C151.267 1.08826 152.084 1.03447 152.847 0.996047C153.61 0.957624 154.111 0.93457 154.357 0.93457C154.789 0.93457 155.436 1.01142 156.299 1.15742C157.162 1.30343 158.002 1.6185 158.85 2.09494C159.69 2.57139 160.43 3.23994 161.054 4.1083C161.678 4.97666 161.994 6.14471 161.994 7.61247C161.994 8.48082 161.847 9.27234 161.562 9.99469C161.277 10.717 160.892 11.3472 160.422 11.8851C159.944 12.4307 159.389 12.8918 158.75 13.2683C158.11 13.6449 157.44 13.9369 156.731 14.1213V14.2827C157.763 14.2827 158.68 14.4748 159.489 14.8513C160.291 15.2279 160.969 15.7197 161.532 16.3114C162.094 16.9031 162.51 17.5717 162.795 18.3017C163.08 19.0317 163.227 19.7541 163.227 20.4534C163.227 22.4053 162.788 23.9422 161.925 25.0718C161.054 26.1938 159.882 27.0544 158.418 27.6308C156.947 28.2148 155.251 28.5837 153.317 28.7527C151.383 28.9218 149.341 28.9986 147.199 28.9986H142.22C142.082 28.7297 142.02 28.4838 142.02 28.2686C142.02 28.0534 142.089 27.7845 142.22 27.454L144.671 27.0083C144.972 26.9545 145.218 26.8546 145.403 26.701C145.596 26.5549 145.734 26.2091 145.835 25.6866C145.927 25.1564 145.996 24.3572 146.035 23.289C146.066 22.2362 146.089 20.7531 146.089 18.855ZM149.803 3.10162C149.803 3.70102 149.788 4.41568 149.765 5.26099C149.734 6.10629 149.718 6.9977 149.703 7.95059C149.688 8.90348 149.672 9.87173 149.641 10.863C149.61 11.8544 149.603 12.7688 149.603 13.6064C150.227 13.6372 150.851 13.6449 151.483 13.6449C152.107 13.6449 152.693 13.6449 153.24 13.6449C154.789 13.6449 156.022 13.1761 156.931 12.2386C157.84 11.3011 158.295 10.1407 158.295 8.75747C158.295 6.75179 157.686 5.29941 156.461 4.40031C155.236 3.50122 153.648 3.05551 151.683 3.05551C151.36 3.05551 151.036 3.05551 150.728 3.05551C150.404 3.0632 150.096 3.07857 149.803 3.10162ZM152.701 15.7581C151.529 15.7581 150.497 15.8964 149.595 16.1654C149.595 18.0558 149.61 19.8694 149.634 21.5984C149.657 23.3274 149.718 25.0027 149.795 26.6241C150.258 26.6779 150.705 26.7163 151.144 26.7471C151.575 26.7778 152.03 26.7855 152.492 26.7855C153.664 26.7855 154.681 26.7086 155.552 26.5626C156.423 26.4166 157.155 26.1477 157.756 25.7711C158.357 25.3946 158.804 24.8567 159.104 24.1727C159.405 23.4811 159.551 22.5974 159.551 21.5139C159.551 19.731 158.942 18.3248 157.717 17.295C156.492 16.273 154.82 15.7581 152.701 15.7581Z" fill="#2C354E"/>
<path d="M184.811 19.0163C184.811 20.6685 184.526 22.1516 183.956 23.4503C183.386 24.749 182.607 25.8479 181.629 26.747C180.65 27.6461 179.502 28.33 178.184 28.7988C176.866 29.2752 175.456 29.5134 173.961 29.5134C172.628 29.5134 171.387 29.2675 170.247 28.7834C169.106 28.2916 168.12 27.623 167.288 26.77C166.456 25.9171 165.808 24.9181 165.331 23.7807C164.853 22.6434 164.614 21.4216 164.614 20.1152C164.614 18.6244 164.907 17.2335 165.492 15.9425C166.078 14.6515 166.879 13.5449 167.897 12.6227C168.914 11.7006 170.108 10.9706 171.464 10.448C172.821 9.92545 174.277 9.65649 175.834 9.65649C177.167 9.65649 178.384 9.89472 179.486 10.3712C180.588 10.8476 181.536 11.5008 182.322 12.3461C183.108 13.1837 183.725 14.175 184.156 15.32C184.595 16.4497 184.811 17.6869 184.811 19.0163ZM168.12 19.1777C168.12 20.4072 168.336 21.5215 168.775 22.5358C169.207 23.5425 169.792 24.4109 170.509 25.1332C171.226 25.8556 172.035 26.4166 172.913 26.8085C173.792 27.2004 174.686 27.4002 175.587 27.4002C176.188 27.4002 176.712 27.3694 177.159 27.3003C177.606 27.2311 178.061 27.0774 178.523 26.8315C178.824 26.6163 179.132 26.309 179.463 25.9094C179.795 25.5098 180.095 25.0333 180.38 24.457C180.665 23.8883 180.896 23.2275 181.074 22.4744C181.251 21.7213 181.336 20.899 181.336 19.9999C181.336 18.7704 181.135 17.6561 180.742 16.6495C180.349 15.6428 179.81 14.7744 179.132 14.0521C178.454 13.3297 177.652 12.7687 176.743 12.3768C175.834 11.9849 174.87 11.7851 173.869 11.7851C173.322 11.7851 172.859 11.8312 172.482 11.9311C172.096 12.0233 171.734 12.1463 171.38 12.2769C170.994 12.5228 170.617 12.8533 170.239 13.2759C169.862 13.6986 169.515 14.1981 169.199 14.7667C168.883 15.3431 168.629 15.9963 168.421 16.734C168.228 17.4563 168.12 18.2786 168.12 19.1777Z" fill="#2C354E"/>
<path d="M206.195 19.0163C206.195 20.6685 205.91 22.1516 205.34 23.4503C204.769 24.749 203.991 25.8479 203.012 26.747C202.034 27.6461 200.886 28.33 199.568 28.7988C198.25 29.2752 196.84 29.5134 195.345 29.5134C194.012 29.5134 192.771 29.2675 191.631 28.7834C190.49 28.2916 189.504 27.623 188.672 26.77C187.84 25.9171 187.192 24.9181 186.714 23.7807C186.237 22.6434 185.998 21.4216 185.998 20.1152C185.998 18.6244 186.291 17.2335 186.876 15.9425C187.462 14.6515 188.263 13.5449 189.281 12.6227C190.298 11.7006 191.492 10.9706 192.848 10.448C194.205 9.92545 195.661 9.65649 197.218 9.65649C198.551 9.65649 199.768 9.89472 200.87 10.3712C201.972 10.8476 202.92 11.5008 203.706 12.3461C204.492 13.1837 205.108 14.175 205.54 15.32C205.979 16.4497 206.195 17.6869 206.195 19.0163ZM189.504 19.1777C189.504 20.4072 189.72 21.5215 190.159 22.5358C190.591 23.5425 191.176 24.4109 191.893 25.1332C192.609 25.8556 193.419 26.4166 194.297 26.8085C195.176 27.2004 196.069 27.4002 196.971 27.4002C197.572 27.4002 198.096 27.3694 198.543 27.3003C198.99 27.2311 199.445 27.0774 199.907 26.8315C200.208 26.6163 200.516 26.309 200.847 25.9094C201.178 25.5098 201.479 25.0333 201.764 24.457C202.049 23.8883 202.28 23.2275 202.458 22.4744C202.635 21.7213 202.72 20.899 202.72 19.9999C202.72 18.7704 202.519 17.6561 202.126 16.6495C201.733 15.6428 201.194 14.7744 200.516 14.0521C199.838 13.3297 199.036 12.7687 198.127 12.3768C197.218 11.9849 196.254 11.7851 195.253 11.7851C194.705 11.7851 194.243 11.8312 193.866 11.9311C193.48 12.0233 193.118 12.1463 192.764 12.2769C192.378 12.5228 192.001 12.8533 191.623 13.2759C191.246 13.6986 190.899 14.1981 190.583 14.7667C190.267 15.3431 190.013 15.9963 189.805 16.734C189.612 17.4563 189.504 18.2786 189.504 19.1777Z" fill="#2C354E"/>
<path d="M223.865 10.1407C224.081 10.6018 224.111 11.1166 223.95 11.6853L222.116 12.131C221.815 12.2155 221.414 12.4538 220.913 12.8457C220.413 13.2376 219.842 13.7217 219.218 14.2904C218.594 14.859 217.924 15.4738 217.215 16.1424C216.506 16.8109 215.789 17.4641 215.049 18.1173C215.62 18.5246 216.328 19.1778 217.168 20.0692C218.008 20.9683 218.895 21.9212 219.819 22.9355C220.744 23.9499 221.653 24.9258 222.555 25.8633C223.456 26.8009 224.258 27.5002 224.959 27.9612C225.206 28.4454 225.206 28.9372 224.959 29.429H222.062C221.515 29.2907 220.929 28.9833 220.289 28.4915C219.65 28.0073 218.995 27.4233 218.332 26.7394C217.662 26.0631 216.999 25.3254 216.328 24.5416C215.658 23.7578 215.018 23.0047 214.387 22.2823C213.755 21.56 213.169 20.9222 212.614 20.3689C212.059 19.8156 211.574 19.4237 211.166 19.2085V19.5774C211.166 21.8059 211.181 23.5272 211.204 24.7491C211.227 25.9709 211.258 26.7163 211.289 26.9853L213.331 27.4771C213.416 27.7461 213.446 28.015 213.431 28.2686C213.416 28.5299 213.385 28.7758 213.331 29.0217H205.54C205.294 28.4761 205.294 27.9612 205.54 27.4771L206.642 27.0314C206.804 26.9469 206.966 26.8393 207.135 26.7086C207.297 26.5703 207.444 26.2553 207.567 25.7558C207.69 25.2563 207.783 24.4955 207.852 23.4734C207.921 22.4591 207.952 21.0374 207.952 19.2239V8.11197C207.952 6.99771 207.898 6.02177 207.79 5.18415C207.682 4.34653 207.521 3.73177 207.305 3.35522H205.348C205.101 2.94794 205.078 2.44844 205.263 1.84904L211.343 0.46582L211.589 0.627196C211.428 2.33317 211.32 3.77787 211.266 4.93824C211.212 6.1063 211.181 7.13603 211.181 8.02744V18.2018C212.298 17.9867 213.439 17.3335 214.61 16.2499C215.781 15.1664 217.153 13.7832 218.733 12.1003L217.184 11.6546C216.914 11.1397 216.914 10.6402 217.184 10.1484H223.865V10.1407Z" fill="#2C354E"/>
<path d="M234.067 9.69507C234.445 9.74886 234.83 9.84876 235.208 10.0025C235.586 10.1485 235.925 10.3329 236.225 10.5481C236.526 10.7632 236.772 11.0168 236.957 11.3011C237.15 11.5855 237.242 11.8621 237.242 12.1388C237.242 12.5998 237.073 12.9687 236.734 13.2377C236.395 13.5066 235.817 13.6757 235 13.7295L234.715 13.6449C234.36 12.9764 233.867 12.5153 233.228 12.254C232.588 11.9928 231.848 11.8467 231 11.816C230.561 11.9543 230.099 12.2002 229.59 12.5537C229.089 12.9072 228.835 13.4298 228.835 14.106C228.835 14.6824 229.051 15.1895 229.49 15.6429C229.922 16.0963 230.469 16.5267 231.124 16.9493C231.779 17.372 232.48 17.7946 233.243 18.2173C234.006 18.6399 234.715 19.1087 235.362 19.6235C236.017 20.1384 236.556 20.7224 236.996 21.3756C237.427 22.0288 237.651 22.7896 237.651 23.6579C237.651 24.6646 237.381 25.533 236.834 26.263C236.287 26.993 235.616 27.6001 234.815 28.0766C234.014 28.553 233.158 28.9065 232.241 29.137C231.324 29.3676 230.492 29.4828 229.729 29.4828C229.159 29.4828 228.604 29.3906 228.08 29.1985C227.556 29.0064 227.07 28.7682 226.654 28.4839C226.231 28.1995 225.899 27.8768 225.653 27.531C225.406 27.1775 225.283 26.8547 225.283 26.555C225.283 26.0402 225.429 25.6252 225.73 25.3101C226.03 24.9951 226.616 24.7876 227.487 24.68L227.733 24.7184C227.98 25.2486 228.45 25.7943 229.143 26.3552C229.837 26.9162 230.731 27.2543 231.817 27.3619C232.418 27.2236 232.996 26.9546 233.551 26.5627C234.106 26.1631 234.383 25.5945 234.383 24.8567C234.383 24.1959 234.168 23.6118 233.728 23.1047C233.289 22.5975 232.75 22.1287 232.095 21.7061C231.44 21.2834 230.738 20.8531 229.991 20.4304C229.244 20.0078 228.542 19.5313 227.887 19.0165C227.232 18.5016 226.693 17.9176 226.254 17.2644C225.814 16.6112 225.599 15.8274 225.599 14.9052C225.599 13.9831 225.899 13.1992 226.5 12.546C227.101 11.8929 227.826 11.3626 228.681 10.94C229.536 10.5173 230.453 10.2099 231.44 10.0025C232.434 9.79497 233.305 9.69507 234.067 9.69507Z" fill="#2C354E"/>
</g>
<defs>
<clipPath id="clip0">
<rect width="237.658" height="31.0226" fill="white" transform="translate(0 0.458008)"/>
</clipPath>
</defs>
</svg>
