<svg width="23" height="18" viewBox="0 0 23 18" fill="none" xmlns="http://www.w3.org/2000/svg">
<path d="M9.48951 12.9668C9.48951 14.5024 9.06061 15.7251 8.2028 16.6351C7.34499 17.545 6.24592 18 4.90559 18C3.40443 18 2.19814 17.4028 1.28671 16.2085C0.428904 15.0142 0 13.3365 0 11.1754C0 9.41232 0.294872 7.84834 0.884615 6.48341C1.47436 5.06161 2.22494 3.89573 3.13636 2.98578C4.04779 2.01896 5.06643 1.27962 6.19231 0.767773C7.31818 0.255924 8.41725 0 9.48951 0C9.65035 0.56872 9.73077 1.19431 9.73077 1.87678C9.73077 2.50237 9.67716 3.01422 9.56993 3.41232C8.33683 3.41232 7.21096 3.89574 6.19231 4.86256C5.22727 5.82938 4.77156 7.08057 4.82518 8.61611C6.21911 8.4455 7.34499 8.81517 8.2028 9.72512C9.06061 10.5782 9.48951 11.6588 9.48951 12.9668ZM22.7587 12.9668C22.7587 14.5024 22.3298 15.7251 21.472 16.6351C20.6142 17.545 19.5152 18 18.1748 18C16.6737 18 15.4674 17.4028 14.5559 16.2085C13.6981 15.0142 13.2692 13.3365 13.2692 11.1754C13.2692 9.41232 13.5641 7.84834 14.1538 6.48341C14.7436 5.06161 15.4942 3.89573 16.4056 2.98578C17.317 2.01896 18.3357 1.27962 19.4615 0.767773C20.5874 0.255924 21.6865 0 22.7587 0C22.9196 0.56872 23 1.19431 23 1.87678C23 2.50237 22.9464 3.01422 22.8392 3.41232C21.6061 3.41232 20.4802 3.89574 19.4615 4.86256C18.4965 5.82938 18.0408 7.08057 18.0944 8.61611C19.4883 8.4455 20.6142 8.81517 21.472 9.72512C22.3298 10.5782 22.7587 11.6588 22.7587 12.9668Z" fill="#988146"/>
</svg>
