<?xml version="1.0" encoding="utf-8"?>
<!-- Generator: Adobe Illustrator 26.0.1, SVG Export Plug-In . SVG Version: 6.00 Build 0)  -->
<svg version="1.1" id="Layer_1" xmlns="http://www.w3.org/2000/svg" xmlns:xlink="http://www.w3.org/1999/xlink" x="0px" y="0px"
	 viewBox="0 0 400 200" style="enable-background:new 0 0 400 200;" xml:space="preserve">
<style type="text/css">
	.st0{fill:#E8DFCD;}
	.st1{fill:#E5D9C1;}
	.st2{fill:#EBE3D6;}
	.st3{fill:#E8DFCB;}
	.st4{fill:#E7DFCA;}
	.st5{fill:#EAE2D3;}
	.st6{fill:#E7DECA;}
	.st7{fill:#E5DCC4;}
	.st8{fill:#E7DFCB;}
	.st9{fill:#E9E2D3;}
	.st10{fill:#E6DDC8;}
	.st11{fill:#E7DEC9;}
	.st12{fill:#E6DDC7;}
	.st13{fill:#E4DAC3;}
	.st14{fill:#DBCFBC;}
	.st15{fill:#E4DCC5;}
	.st16{fill:#DED2BA;}
	.st17{fill:#E6DCC7;}
	.st18{fill:#DCCCAF;}
	.st19{fill:#DED3B9;}
	.st20{fill:#DFD3B9;}
	.st21{fill:#D9CEBB;}
	.st22{fill:#E1D6C0;}
	.st23{fill:#E6DEC9;}
	.st24{fill:#E7DFC9;}
	.st25{fill:#E7DEC8;}
	.st26{fill:#E8DDC8;}
	.st27{fill:#DCCEB1;}
	.st28{fill:#D7CAAF;}
	.st29{fill:#DCCCB0;}
	.st30{fill:#DCCEB2;}
	.st31{fill:#E6DFC9;}
	.st32{fill:#E7DDC8;}
	.st33{fill:#E6DEC7;}
	.st34{fill:#E8DEC8;}
	.st35{fill:#E3DBC2;}
	.st36{fill:#E2DAC2;}
	.st37{fill:#D9D0BC;}
	.st38{fill:#D4CBB6;}
	.st39{fill:#E1D4BC;}
	.st40{fill:#D8C9AB;}
	.st41{fill:#D7CAB1;}
	.st42{fill:#DDD2B6;}
	.st43{fill:#BBAC97;}
</style>
<rect class="st0" width="400" height="200"/>
<g>
	<path class="st1" d="M29.7,98.7c1.2-0.5,2,0.1,1.9,0.6c-0.8,2.1,0.5,3.7,3.8,3.2c3-0.4,3.8-2.8,3.4-4.4
		c-1.5-5.8,4.8-12.1,13.8-13.3c2.3-0.3,4.5-0.6,4.6,1.6c0,0.5,0.4,1.4,1,1.5c6.1,1.3,10.4,4.4,15.7,6.5c5.2,2.1,8.9,7.6,7.9,11.4
		c-0.7,2.7-1.3,5.2-4.1,7.6c-2,1.8-1.3,4.4,0.3,6.6c0.9,1.4,0.9,2.8,0,4.1c0,0.7,0,1.4,0,2.1c0.5,0.3,1.5,0.4,1.8,0.7
		c1.9,2.2,4.2,2.3,7,0.7c1.2-1,5.9-0.2,4-2.9c0,0,0.9-0.4,1.3-0.4c1.4,0.1,2,0.8,2.3,1.6c0.5,1.3-1.2,3.1,2.3,3.7
		c1.8,2,4.7,3.6,5.9,5.9c-0.5-1.5,1-2,2.9-2.3c-0.7-0.9-3.1-0.6-3.5-2.1c2.2-1.3,5.5,0.2,7.8-0.8c1.3-0.7,2.4-1.4,3.8-2
		c4.1-1.9,7.8-1.3,10.2,1.5c1.2,1.4,1.5,3,3.5,4.2c1.7,1,0.6,1.8-1,2.5c-2.5,1-2.3,2-0.6,3.4c3.4,2.7,2.5,5.1-2.8,6.1
		c-4.7,0.9-7.3,2.9-9.7,5.2c-2.7,2.5-5.2,4.9-10.8,4.8c-0.6,0-1.8,0.4-1.8,0.6c0.2,3.4-4.2,6.2-3.9,9.6c2.9,0.3,1.5-1.7,3.7-1.6
		c1.4,1.1,0.5,2.4,0.7,3.6c1.3,1.2,2.6,2.4,0.1,3.6c-1.1,0.6-0.8,1.2-0.3,1.9c0.6,0.7,0.6,1.5,1,2.2c2.5,2.9-1.2,5-2.3,7.5
		c0,0.1,0.1,0.2,0.2,0.3s0.3,0,0.5,0c1-0.3,1.9-0.6,3-0.7c5.4-3.1,9.5-6.7,10.9-11.4c1.2-0.6,2-1.9,1.6-2.3
		c-2.4-2.1,0.3-3.2,1.7-4.6l0,0c0.3-0.4,0.6-0.8,1-1.2c1.2-1.2-4-3.5,1.4-3.9c2.2-0.1,4.1-2.8,6.8-0.4c0.3,0.3,3.1-0.2,4-1.2
		c1.7-1.8,2.8-0.5,3.8,0.4c0.9-0.9,0.4-1.5-0.1-2.1c-0.4-0.5-1.2-0.9-1.1-1.2c6.9-2.6,14.9-3.8,18.4-8.8c0.3-0.4,0.9-1.1,0.6-1.3
		c-3.1-2.3-1.2-5-1.8-7.3c-1.1-4,3-6.6,3.7-10c0.2-1.1,6.1-0.3,6.9,1.1c1,1.9,1.2,1.8,3.7,0.4c3-1.7,7-3,11.5-1.7
		c1.2,0.3,2.3,1.5,3.8,0.5c1.6-1,0-1.7-0.9-2.3c-1.4-1-1.4-2.1,0.8-2.4c4.1-0.5,3.6-2.3,3.2-4c-0.9-3.1-0.3-5.2,5.7-5.5
		c2.7-0.1,4.3-1.4,4.4-3.4c0.1-2.2,0.6-4.3,1.1-6.5c0.5-2.7,4.1-4.6,8.1-3.6c6.6,1.6,13.9,1.3,20.3,3.5c3.6,1.2,7.3,2,9.3,4.4
		c0.7,0.8,1.9,1.6,3.5,1.5c5.4-0.4,9.3,3,15.2,2.1c2.5-0.4,3,2,2.7,3.5c-0.3,1.6-1.2,3.1-1,4.8c0.2,2.1,1,3.4,5.1,2.2
		c4.3-1.3,7.8,0.4,6.7,3.4c-0.9,2.4-0.3,4,3.1,5.2c1.7,0.6,1.6,1.7,1.6,2.8c0,2,0.3,3.9-0.1,5.9c-0.5,3.1,1,5.4,4.6,7.6
		c2,1.2,7.2,3.9-1.2,4.6c-1.5,0.1-1.1,1.1-0.5,1.6c1.1,0.9,2.5,1.7,3.7,2.5c2.3,1.5,3.4,3-1,3.7c-2.8,0.5-2,1.3-0.7,2.1
		c3.6,2.3,8.2,4.5,1.9,7.8c-0.8,0.4-0.3,1.4,0.5,1.9c1.8,1,1.4,1.9,0.7,3.3c-1.3,2.3,5.9,7.2,9.6,6.4c3.1-0.6,3.2,0.5,3.1,1.7
		c-0.2,2.2-1.4,4.2-2.1,6.3c-1,3.2-3.6,6.4-2.2,9.9c-73.9,0-147.7,0-221.6,0c-1.5-1.6-2.9-1.2-4.4,0c-17.9,0-35.7-0.1-53.6,0.1
		c-4.3,0.1-4.6-0.8-4.6-3.1c0.1-31.7,0.1-63.4,0.1-95.1c3.2,0,4,1.9,4,3.1c0,3.9,5.5,3.8,8.8,5.3c-1.8-2-8.3-0.8-7.7-4.3
		c0.4-2.4-3.8-4.5-0.6-6.9c3.9,1.6,5.4,0.9,6-1.9c0.8-3.1,3.1-6,0.9-9.5c-1.5-2.4,3.9-1.1,5.1-2.4c3.8-0.6,2.8,0.8,2.2,2.1l0,0
		c-0.3,1.8,2.6,0.5,3.3,1.4l0,0c1.6,1.7-1.2,1.5-2.2,2.1c-0.4,0.7-0.7,1.4-1.1,2.1c0.6,1.9-1.3,4.7,4.4,4.8l0,0
		C25,99.4,26.9,99.7,29.7,98.7z"/>
	<path class="st1" d="M219.4,0c-0.9,0.4-3.4,21.7-3.1,22c1.7,1.5-0.2,2.3-1.3,3.4l0,0c-0.2,0.3-0.5,0.6-0.7,0.9
		c-0.9,0.9,2.9,2.6-1,2.8c-1.6,0.1-3,2.1-4.9,0.3c-0.2-0.2-2.3,0.2-2.9,0.9c-1.3,1.3-2,0.4-2.8-0.3c-0.7,0.6-0.3,1.1,0.1,1.5
		c0.3,0.4,0.9,0.6,0.8,0.9c-5,1.9-10.9,2.8-13.4,6.4c-0.2,0.3-0.6,0.8-0.4,0.9c2.3,1.7,0.9,3.6,1.3,5.3c0.8,2.9-2.2,4.8-2.7,7.3
		c-0.2,0.8-4.5,0.2-5-0.8c-0.8-1.4-0.9-1.3-2.7-0.3c-2.2,1.2-5.1,2.2-8.4,1.3c-0.9-0.2-1.7-1.1-2.8-0.4c-1.1,0.7,0,1.2,0.6,1.7
		c1,0.8,1,1.5-0.6,1.7c-3,0.4-2.7,1.7-2.3,2.9c0.7,2.2,0.2,3.8-4.2,4c-2,0.1-3.2,1-3.2,2.4c0,1.6-0.5,3.2-0.8,4.7
		c-0.4,2-3,3.4-5.9,2.6c-4.8-1.2-10.1-0.9-14.8-2.5c-2.6-0.9-5.3-1.5-6.8-3.2c-0.5-0.6-1.4-1.2-2.5-1.1c-3.9,0.3-6.8-2.2-11.1-1.5
		c-1.8,0.3-2.2-1.4-1.9-2.6c0.2-1.2,0.9-2.3,0.7-3.5c-0.2-1.5-0.7-2.5-3.7-1.6c-3.2,0.9-5.7-0.3-4.9-2.5c0.7-1.8,0.2-2.9-2.3-3.8
		c-1.2-0.4-1.2-1.2-1.2-2c0-1.4-0.2-2.9,0-4.3c0.4-2.3-0.7-4-3.4-5.6c-1.5-0.9-5.3-2.8,0.9-3.3c1.1-0.1,0.8-0.8,0.3-1.2
		c-0.8-0.7-1.8-1.2-2.7-1.8c-1.7-1.1-2.5-2.2,0.7-2.7c2.1-0.4,1.4-0.9,0.5-1.6c-2.6-1.7-6-3.3-1.4-5.7c0.6-0.3,0.2-1-0.4-1.4
		c-1.3-0.8-1-1.4-0.5-2.4c0.9-1.7-4.3-5.2-7-4.7c-2.3,0.5-2.3-0.4-2.3-1.2c0.1-1.6,1-3.1,1.5-4.6c0.7-2.4,2.6-4.7,1.6-7.2"/>
	<path class="st1" d="M217.9,51.9c-3,1.4-5.7,0.9-7.4-1.1c-0.9-1-1.1-2.2-2.5-3.1c-1.2-0.8-0.4-1.3,0.8-1.8c1.8-0.7,1.7-1.5,0.4-2.5
		c-2.5-2-1.8-3.7,2.1-4.4c3.4-0.6,5.3-2.1,7.1-3.8"/>
	<path class="st1" d="M241.4,26.1c1.4-1.4,0.7-2.8,0.3-4.3c-0.7-2-0.6-3.6,4.3-3c5.8,0.7,7.8-0.4,8.7-4.1c0.2-0.8,0.7-1.6,0.9-2.3
		c1.1-5.6,1.1-5.6,9.7-5.6c7.6,0,11.6-1.7,14.5-6.2c25.6,0,51.2,0,76.8,0c5.3-0.5,8.5,2.3,12.8,3.4c1.8,0.4,1.5,1.7,1.3,2.8
		c-0.6,4.1-1.1,8.2,2.3,12.1c1.3,1.6,0.5,3.4,0,5.1c-0.8,2.4-0.8,4.7,1.5,7c1.5,1.5,2.9,2.6,6.3,2.7c5.2,0.2,6.2,1.6,3.4,4.5
		c-2.1,2.2-2,4.1,0.1,6.4c5.9,6.6,9.8,13.4,2.9,20.8c-1.7,1.9-1.4,4.3-3.8,6c-0.7,0.5-0.4,1.1,0.1,1.6c3.7,3.8,0.7,7-2.6,10.1
		c-1.4,1.2-2.4,2.5-3.6,3.8s-1.7,2.5,0.8,3.5c1.7,0.7,2,1.9,1.9,3.1c-0.1,1-0.2,2.2,0.9,3c4.1,3,2.2,5.5-1.2,7.9
		c-2.2,1.6-2.4,3.3-0.9,5.1c2.1,2.6,2.1,5.3,1.2,8.1c-0.8,2.5-0.8,5,2,7.1c0.6,0.5,1,1.1,0.8,1.6c-1.8,3.5,0.8,7.1-0.5,10.9
		c2.2-0.2,4-1.6,6.1-0.5c2,1,2.8,2.4,3,3.9c0.5,3.6,0.7,7.1-0.8,10.6c-1.3,2.9-2.2,5.8-2.2,8.8c0,2.1,0.5,4,2.9,5.7
		c3.3,2.4,3.3,5.4,1.6,8.2c-3,4.9-1,9,3.5,12.9c1.8,1.6,2,3.4,3.2,5c0,2.5,1.6,6.1-0.4,7.3c-2,1.3-7.6,0.3-11.6,0.3
		c-7.3,0-14.6,0-21.9,0c-1-1.4,1.3-3.1-1-4.6c-2,1.3-1,3.5-3.4,4.6c-2.2,0-4.4,0-6.6,0c-1.5-1.9-2.9-0.5-4.4,0c-0.7,0-1.5,0-2.2,0
		c-0.6-1.4,2.2-2.8,0-4.1c0.8-2.8-0.9-4.9-3.7-7c-3.7-2.9-2.9-5.3,2.4-7.3c2.6-1,5.2-1.7,3.5-3.8c-1.4-1.7-2.9-4-7.5-3
		c-0.9,0.2-1.7-0.3-2.6-0.7c0.1,1.6,2.4,1.2,3.6,1.7c1.6,0.7,2.2,1.5,1.5,2.6c-0.7,1-1.8,1.2-3.5,1.1c-4.2-0.2-6.5-2-7.8-4.1
		c-1.2-2-2.5-3.4-6.5-3.5c-3.2-0.1-3.1-2.7-2.3-3.6c4.3-4.8-1.7-7.9-4.5-11.4c-2-2.4-2.3-4.5-0.1-6.8c-2.5-4.5,1.6-9.4-2.1-13.8
		c4.4-3.7-1.5-8.7,3.9-12.3c-2.5-5,3.8-10.6-3.1-15.4c-2.9-2-3.4-5.2-5.7-7.7c-1.5-1.7,0.2-3.5,3.4-3.9c5.5-0.6,4.3-2.9,2.3-4.5
		c-5.3-3.9-12.9-6.4-19.2-9.9c-2-1.1-4.9-0.9-7.3-0.1c-5.5,1.7-10.6,1.1-15.5-1.1c-3.3-1.4-6.6-2.9-9.8-4.4c-1-0.5-2.4-1.1-2.5-1.7
		c-0.4-4.4-6.5-4.9-10.9-6.6c-3.5-1.3-6.7-3.1-9.9-4.7c-3-1.5-6.2-2.4-10.1-2c-0.9,0.1-2.3,0.1-2.5,0.4c-3.5,5.2-11.8,3.8-18,4.9
		c-3.3,0.6-6.1,0.8-8,2.9c-0.9,1-2.3,2.3-4.7,1.9c-2.6-0.4-2-1.9-2.2-3.2c-0.8-5.8,7.3-14,15.5-16.7c5.8-1.9,10.1-4.8,9.7-9.4
		c-0.2-2,0.6-3.3,3.5-4.9c4.5-2.4,8.8-5.1,13-7.8c2.7-1.3,6.2-1,9.5-1.4c-1.9-1.6-3.4-1-5.3-0.3C241,29.2,240.3,28.2,241.4,26.1z"/>
	<path class="st0" d="M399.4,191.9c-1.8-1.6-3.7-3.1-5.4-4.7c-4.2-4.1-6.7-8.2-3.4-13.2c2-3,1.7-5.9-2.7-8.7c-3.9-2.5-2-6.4-1.2-9.6
		c1.2-4.5,3.5-8.9,2.8-13.6c-0.2-1.3-0.5-2.5-1.2-3.7c-0.4-0.7-0.8-1.3-2.1-1.4c-1.3-0.1-1.9,0.6-2.2,1.3c-0.5,0.9-1.2,1.9-3,1.6
		c-2.2-0.4-1.6-1.7-1.2-2.6c1-2.1,0.9-4,0-6.1c-0.6-1.4-0.8-3,0.6-4.3c0.5-0.5,1.1-1.4,0.3-1.4c-5.1,0.1-2.2-2.2-3.1-3.4
		c-2.2-2.9,1.8-5.4,0.6-7.8c-2.6-5-4.6-9.8,3.1-13.8c-2.3-2.8-4.6-5.5-4-8.9c0.1-0.5-5.2-0.7-4.1-2.7c1.1-2.2,2.5-5.1,5.2-6.2
		c3.7-1.5,2.3-3.7,4-5.2c2.8-2.5-0.1-3.4-2.7-4.6c-1.4-0.6-0.8-1.2,0.4-1.9c7.1-4,9.8-13.4,6.8-19.2c-1.5-3-3.4-5.6-6.3-8.2
		c-2-1.7-1-4.4,1.6-6.2c0.9-0.6,2.9-0.8,2-2c-0.8-1-2.4-0.9-3.9-0.8c-1.7,0-4.3,1.2-5,0c-1.3-2.2-5.2-3.8-5-6.2
		c0.2-1.9-0.9-4,1.2-5.9c1-0.9,0.9-2.6-0.3-3.6c-5.1-4.4-2.9-9-1.9-14c-3.2,0.6-5.9,0.6-6.5-2.3c-0.4-2.2-4.8-0.5-6.3-1.9
		c6.9,0,13.9,0,20.8,0c5.5,2.9,4.4,7.4,6.1,11.1c1,2.3,1.1,4.8,0.9,7.2c-0.1,2.7,0.7,5.3,3.8,7.3c1,0.7,2.2,1.4,2.3,2.3
		C391,35.8,400,42.3,395,50c-0.3,0.4-0.2,0.9-0.1,1.4c2.3,9,2.1,18,3.4,27c0.8,5.5-0.9,10.8-2,16.1c-0.3,1.6-2,2.7-4.1,3.5
		c-5.2,1.8-5.3,5-6.3,8c-0.3,0.9,0.6,1.5,1.7,2c5.7,2.4,6.4,6,5.3,9.8c-1,3.4-0.4,6.6,2.6,9.6c3,3,1.4,6.5,2.4,9.8
		c1.1,5.6-0.5,11.2,0,16.8c0.1,1-0.8,2.1,1.1,2.8C399.4,168.4,399.4,180.2,399.4,191.9z"/>
	<path class="st2" d="M397.2,137.4c-1.4-4.1-0.8-8.4-5.3-12.1c-2.3-1.9-1.6-4.6-0.9-7c1.2-4,2.1-7.9-5.9-9.7
		c-1.2-0.3-2.5-1.2-1.9-1.9c3-3.4,0.6-8.7,9.1-10.1c2.2-0.3,2.7-1.4,2.6-2.7c-0.2-2.2,0.7-4.4,1.8-6.4c3.2-5.7,1.6-11.6-0.5-17
		c-2.7-6.6,0.5-13.3-3.2-19.6c-0.7-1.2,0.4-2.9,1.1-4.4c0.9-1.8,0.9-3.5,0-5.4c-1.9-4-6.2-7.5-4.9-12c0.1-0.4-0.8-1-1.5-1.4
		c-4-1.9-5.8-4.6-5.4-7.5c0.8-6.8-2.4-13.2-4.9-19.6c6.6,0,13.1,0,19.7,0c1.8,0,2.7,0.1,2.3,1.4c-0.2,0.6,0,1.1,0,1.7
		c0,44.6,0,89.2,0,133.7C398.7,137.8,398,137.8,397.2,137.4z"/>
	<path class="st1" d="M199.8,11.6c-1.6-2.5-5.1-0.9-7.7-1.4c-2.3-0.5-5.4-0.5-4.2-2.9c0.9-1.9,3.3-2.2,6.1-1.9
		c2,0.3,4.1,1.4,5.7-0.7c-2.8-1.2-5.5-0.4-8.2-0.1c-5.9,0.7-7.6-0.5-6-4.2c8.4,0,16.8,0,25.2,0c6.4,1.8,9.4,4.5,7.4,8.9
		c-1.9,4.1-1.2,8.1-1.9,12.1c-0.3,1.7-0.5,3-3.6,1.3c-3.5-2-7.4,0.6-11-0.4c-0.4-0.1-0.9,0.8-0.5,1.1c4.8,3.4-2.8,4.1-3.6,6.3
		c-0.3,0.7-3.3,0.8-4.4,0.1c-1.6-1,0.4-1.7,1.4-2.1c3-1.2,5-2.1,1.4-4.4c-1.9-1.2-3.5-3.3,0.5-4.8c1.1-0.4,1-1.4,1-2.2
		c1-0.7,1.6-2,3.7-1.7c2.3,0.4,1.7,1.8,2.7,3.7c0.1-2.6-0.3-4.8,4-4.9c1.1,0,2.3-0.1,2.2-1.1c-0.1-0.7-0.3-1.4-1.4-1.8
		c-1.1-0.4-2.1,0-3,0.3C203.9,11.9,202.4,14,199.8,11.6z"/>
	<path class="st3" d="M136.1,38.6c3.6-2.4,4.5-4.9,1.4-7.7c-1.7-1.5-0.8-2.3,1.8-2.6c1.8-0.2,3.6-0.5,4.8-1.4c1-0.8,1.2-1.7,0.2-2.5
		c-1.1-0.8-1.8-0.1-2.6,0.4c-1.7,1.1-3.1,0.8-3.2-0.6c-0.1-1.8-3.5-3.4-0.5-5.4c0.8-0.6-0.4-2-1.5-1.8c-5.6,1.1-9-1.8-11.5-3.5
		c-6.8-4.6-14.9-8.2-21.7-12.7c4,0,8,0,12.1,0c6.8,4.7,16.1,7.3,23.8,11.2c1.5,0.8,2.7,0.8,4.4,0.3c2.3-0.8,4.8-1.2,6.9,0.3
		c-4.9,0.6-7.2,2-4.8,5.3c0.4,0.5,0,1.4-0.5,1.9c-1.6,1.7-0.6,2.7,1.6,3.8c3,1.5,2.6,3-0.7,4.3c-4.7,2-5.9,5.6-2.3,8.3
		c3.3,2.5,2.5,4.1-1.7,5.4c-4.6,1.4-5.9,3.4-5.6,6.8c0.6,5.9-0.2,11.9-0.5,17.8c-0.1,1.8-1.8,2.4-4.4,2.3c4.6-4,3.1-8.7,3.3-13.1
		c-2.3-0.9-2.3-1.8,0-2.8c1.2-1.2,0.7-2.2-0.9-3c-2.5-1.2-3.5-2.9-4.5-4.6c-1-1.1-3.5-0.9-4.4-2.1c6.2-4.2,5.6,2.3,9.2,2.5
		C135.5,42.9,131.6,40.2,136.1,38.6z"/>
	<path class="st1" d="M150.4,12.3c-2.9,0.2-6.3-0.7-7.9,1.9c-0.8,1.2-2.1,0.4-2.8-0.3c-3.8-3.6-10.4-4.8-15.6-7.1
		c-3.8-1.7-7.6-3.1-8.7-6.2c15,0,30,0,45,0c0.6,0.4,1.4,0.7,2.1,1.1c2,1,4.2,2.3,2.8,4c-1.5,1.9-4.1,0.2-6.2,0.2
		c-0.4,0-0.7-0.1-1.1-0.1c-6.9-0.2-6.9-0.2-5.8,4c0.1,0.5-0.1,0.9-0.5,1.3C151.2,11.5,150.9,11.9,150.4,12.3L150.4,12.3z"/>
	<path class="st1" d="M181.1,11.6c-0.2,0.6-0.6,1.2-1.6,1.2c-4.4,0-8.1,0.2-9.7,3.5c-0.6,1.2-2.9,0.7-3.6-0.5
		c-0.5-0.8-0.1-1.7-0.1-2.6c-2.2,0.2-3.7,1.4-5.8,1.1c-1.5-3.3,1.9-5.3,5.5-6.6c4-1.4,2.8-2.1,0.8-3.6c-1.4-1-4-1.8-2.9-3.7
		c6.6,0,13.2,0,19.7,0C185.5,4.5,183.4,8,181.1,11.6z"/>
	<path class="st3" d="M163.5,0.6c2.5,1.7,5,3.3,7.4,5c1.3,1,2.2,2.4-0.7,2.4c-6.8,0.1-7.3,3.9-9.9,6.3c-2.4-2.3-6-2.6-9.9-2.1
		c0-0.5,0-0.9,0-1.4c1.6-0.9,6.1-0.8,2.7-3.3c-0.1-0.7,0.2-1.3,0.8-1.9c1.4-1.1,3.7-0.2,5.2-1c2.4-1.3,3.1,0.6,5,1.2
		c1-2.6-4.1-3.3-3.9-5.4C161.4,0.6,162.4,0.6,163.5,0.6z"/>
	<path class="st4" d="M181.1,11.6c-0.7-3.8,1.6-7.4,2.2-11.1c0.7,0,1.5,0,2.2,0c0.5,3.4,2.6,4.4,7.9,2.6c2.1-0.7,5.2-0.3,7.9-0.2
		c1.4,0.1,2.2,1.1,1.4,1.9c-1.4,1.4-2.6,3.1-6,2.9c-0.5,0-0.9-0.4-1.3-0.6c-2-1.1-4.3-1.7-6,0c-1.8,1.8,1.3,2.2,2.7,3.1
		C188.3,10.3,184.3,9.7,181.1,11.6z"/>
	<path class="st4" d="M5.6,98.7c0.6,1.7,0.1,3.7,3,4.9c0.7,0.3,1.2,0.7,0.7,1.1c-4.2,3.8,2.4,3.1,3.9,2.9c2.3-0.3,3.3-0.4,3.9,1.1
		c0.4,0.9,1.1,2.2-0.6,2.3c-1.9,0.2-3.9,0.6-6.1-0.4c-5.2-2.3-6.1-6.2-9.1-9.3c0-1.6,0-3.2,0-4.8C3.5,96.5,3.2,98.7,5.6,98.7z"/>
	<path class="st5" d="M397.2,137.4c0.7,0,1.5,0,2.2,0c0,6.4,0,12.9,0,19.3c-0.8,0.3-1.8,0.9-2.4,0.7c-1.8-0.4-0.5-1.3-0.5-2
		C396.9,149.4,398.8,143.4,397.2,137.4z"/>
	<path class="st4" d="M361,199.5c-0.3-2.6,0.4-5,3.8-7.4c1.6,2.6,5.3,4.8,0.6,7.4C363.9,199.5,362.5,199.5,361,199.5z"/>
	<path class="st6" d="M59.3,199.5c0-0.2,0-0.5,0-0.7c0.1-1.3,0.3-2.8,3-2.6c3.7,0.3,1.4,2.1,1.4,3.2
		C62.3,199.5,60.8,199.5,59.3,199.5z"/>
	<path class="st0" d="M350,199.5c0.2-0.3,0.4-0.6,0.7-0.9c1.2-1,1.3-3.3,3.7-2.7c2.5,0.6-0.2,2.3-0.1,3.6
		C353,199.5,351.5,199.5,350,199.5z"/>
	<path class="st7" d="M1.2,52.4c2.8,1.2,2.8,2.3,0,3.5C1.2,54.7,1.2,53.5,1.2,52.4z"/>
	<path class="st1" d="M61.7,53.3c-9.6,0.8-16.3-0.4-22.7-3.9c-9.1-5-20.1-7.9-32.3-8.5c-7.5-0.4-8.9-2.9-3.3-5.5
		C17.9,28.8,18.3,20,16.5,9.9C15,1.4,20.2-0.6,32.7,2.4C48.3,6.2,63.2,10.6,77,16.6c5.3,2.4,8.8,3.8,7,8.4c-1.6,4.1,4,7.1,9,6.4
		c19.3-2.8,9.9,7.4,11.5,10.9c2.6,5.8-6.9,5.8-13.6,5.8C79.7,48.1,72.8,57.3,61.7,53.3z"/>
	<path class="st8" d="M320.4,149.8c-2.2,4.4,1.6,7.5,5.5,10.6c2.1,1.7,1.2,3.8,0.6,5.6c-0.5,1.6-0.8,3.1-0.3,4.6
		c2.1,0.2,2.3-0.9,3.2-1.3c1.5-0.7,2.8-0.9,2.6,0.7c-0.2,3,3.2,4.9,5.2,7.2c0.8,0.9,2.4,0.9,3.8,1.2c1.5,0.3,2.6,0,3-0.9
		c0.4-0.8-0.4-1.3-1.6-1.4c-2-0.2-3.3-0.8-4.3-1.9c-1.1-1.1-1.6-2.2,0.5-3c2.8-1,2.3,0.5,2.6,1.4c0.6,1.6,1.9,1,3.1,0.3
		c0.9-0.6,1.5-1.2,2.7-2.2c0.9,1.7-0.4,3.6,3.6,4.4c2.8,0.5,1.7,3.5,2.1,5.4c0.3,1.5-2.8,0.9-4.4,1.2c-5.5,1-7,4.3-2.3,7.3
		c3.4,2.2,4.4,4,1.7,6.5c-1.7-2.9-2.7-5.9-6.6-8.1c-2-1.1-1.1-2.5,0.6-3.7c1.4-0.9,2.1-1.9,1.1-3.1c-1-1.2-2.7-0.6-4.3-0.6
		c-4.4,0-3.5-3-5.5-4.4c-1.4-1-1.9-2-4.5-2.4c-4.1-0.6-6.4-4.6-4-7.1c1.8-1.9,1.2-3.1-0.9-4.6c-3.2-2.3-4.6-5.1-5.7-8
		C317.3,151.6,318,150.6,320.4,149.8z"/>
	<path class="st6" d="M101,185c-1.3,0.9-3,1-4.3,0.2c-1.5-1,1-1.5,1.3-2.2c0.8-2,5-3.7,1.9-6.2c1.1-0.9,1.5-1.8,0-2.8
		c-2.8-1-5.4-1.9,0.1-2.8c3.2-0.5,0.7-1.8,1-2.7c3.3,1.3,1.8,4,4.4,5.5c0.7,0.6,0.4,1.1-0.1,1.6c0.1,0-0.5,0.2,0.1,0.2
		c0.3-0.1,0.6-0.1,0.9,0c0.6,0.2-0.3,0.4,0.4,0.1c0.2-0.1,0.2-0.4,0.1-0.6c0.5-1.5,1.8-2.7,4-3.4c1.1,0.9,2.2,0.9,3.3,0
		c2.9,1.1,4,1.6,0.5,3.8c-3.6,2.3-6.1,5.7-9.1,8.6c-0.4,0.4-0.6,1.3-1.7,0.9c-0.5-0.2-0.5-1-0.7-1.5c-0.3-0.1-0.5-0.3-0.7-0.4
		l-0.2-0.2l-0.3,0.1C101.6,183.8,101.7,184.5,101,185z"/>
	<path class="st3" d="M199.8,11.6c1.4,0.4,2.5,0.8,3.5-0.5c1.4-1.9,4.3-2.9,7.1-1.7c2.5,1.1,2.4,3.5,2.3,5.3
		c-0.1,1.3-1.8,0.5-2.9,0.2c-3.5-0.9-4.9-0.4-3.7,2.1c0.5,1,0.9,2.1-1,2.7c-1.2,0.4-2.5,0.4-3.6-0.1c-1.9-0.9,0.2-1.6,0.3-2.4
		c0.1-0.5,0.1-1.4-0.4-1.6c-1.6-0.7-2.4,0.6-3.7,0.8C198,14.8,200.5,13.5,199.8,11.6z"/>
	<path class="st9" d="M44,37.2c1.2,1.7,0.1,2-2.3,1.7c-1.2-0.2-2.4-0.6-3.6-0.6c-1.8,0-3.6,2.7-5,0.4c-0.7-1.2,0.6-3.8,2.3-4.5
		c4.6-1.8,6.5-4.4,7.6-7.5c0.2-0.7,0.6-1.5,1.9-1.4c1.5,0.1,1.3,1,1.3,1.6c0,1.2,2.1,2.3,0,3.5c-0.6,0.5-1.5,0.9-2.2,1.4
		c0,0.2,0,0.5,0,0.7C44.7,33.9,40.9,35.6,44,37.2z"/>
	<path class="st10" d="M109.8,130.4c-1.7,1.2-4.2,0.4-6.5,0.9c2.1,1,6.5,0.1,6,2.4c-0.4,1.6-3.1,1.6-5.2,0.5c-0.9,1,0.6,1.3,0.9,2
		c0.5,1-0.1,1.6-1.7,1.7c-1.3,0.1-3.3,0-2.9-0.9c1.4-3-3-4.8-3.7-7.3c2.1,1.4,4,2.4,7.3,0.8C105.2,129.9,107.8,130.5,109.8,130.4z"
		/>
	<path class="st11" d="M241.4,26.1c0.2,0.5,0.3,1.4,0.8,1.5c1.2,0.3,1.2-0.5,1.5-1c0.8-1.5,2.8-1.4,4.4-1c2.2,0.7,4.6,1.5,5.7,2.9
		c0.6,0.8-1.1,0.9-2.1,1c-3.8,0-7.6,0-11.3,0C240.5,28.4,239.8,27.1,241.4,26.1z"/>
	<path class="st12" d="M86.8,127.7c-1.9,0.9-1.4,2.8-2.5,3.5c-3.5,2.5-2.5-0.4-3.2-1.3c-1-1.2-2.1-2.4-3.1-3.6
		c0.6-0.2,1.4-0.3,1.8-0.6c2.3-1.7,4.2-2.4,4.8,0.7C84.8,127.2,85.6,127.5,86.8,127.7z"/>
	<path class="st13" d="M153.2,16.1c1.8,0.7,2.5,1.8,2.6,3.1c0,0.8-0.5,1.8-2,1.6c-2.8-0.2-2.2-1.8-2.2-3
		C151.5,17.2,151.1,16.3,153.2,16.1z"/>
	<path class="st14" d="M44,37.2c-6-1.6-2.1-3.2,0-4.8c1.3,0.6,4.5,0.8,1.4,2.4C44.1,35.4,44,36.3,44,37.2z"/>
	<path class="st12" d="M24.2,97.3c-1.8,0.1-3.6,1-5.4-0.3c-2.7-1.9,1.1-3,1-4.5C21.8,93.9,21.5,96.1,24.2,97.3z"/>
	<path class="st12" d="M19.8,86.9c0-1-0.1-1.9-2.2-2.1c0-0.5-0.1-0.9,0-1.4c0.2-1.1-0.7-3.1,2-2.9c2.3,0.2,0.5,1.8,0.6,2.8
		C20.3,84.6,21.8,85.8,19.8,86.9z"/>
	<path class="st15" d="M8.2,83.8c0.3,0.9,1.1,2-0.7,2.2c-2.2,0.2-1.9-1.1-1.9-1.9c0-0.9-0.5-2.2,1.3-2.3C10.1,81.5,7,83.4,8.2,83.8z
		"/>
	<path class="st16" d="M104.3,175.4c0.4-0.5,0.7-0.9,1.1-1.4c2.3-0.2,1.9-3.2,5.5-2.1c-1.1,1.4-2.2,2.8-3.3,4.1
		c-0.2,0.2-0.5,0.3-0.7,0.2s-0.4-0.2-0.4-0.2c-0.4,0-0.7,0-1.1,0C104.8,176,104.7,175.6,104.3,175.4z"/>
	<path class="st1" d="M10.5,90.2C10.2,91.1,9.1,91,8,91c-1.3,0-2.8-0.2-2.9-1.1S6.5,89,7.5,89C8.8,89,10,89.2,10.5,90.2z"/>
	<path class="st17" d="M15.4,76.6c1,0,1.9,0.2,1.9,0.9c0,0.9-1.2,1-2.3,1c-1,0-2.4,0-2.1-1C13.1,76.8,14.2,76.6,15.4,76.6z"/>
	<path class="st15" d="M151.4,31.4c-0.1,0.6-0.1,1.2-1.3,1.2c-1.3-0.1-1.7-0.7-1.8-1.4c-0.1-0.6,0.1-1.2,1.3-1.2
		C150.9,30,151.2,30.7,151.4,31.4z"/>
	<path class="st10" d="M29.7,98.7c-3.2,1.8-5.6,2.1-5.5-1.4C25.6,98.4,27.5,98.9,29.7,98.7z"/>
	<path class="st18" d="M117.5,165c-1.2,0.4-2.4,0.5-3-0.5c-0.2-0.4-0.2-1,0.7-1C116.6,163.4,117.3,164.1,117.5,165
		C117.4,165,117.5,165,117.5,165z"/>
	<path class="st19" d="M142.8,136.2c0.3,0.4,0.7,0.7,0.7,0.9c-0.1,0.2-0.6,0.4-0.9,0.6c-0.3-0.2-0.7-0.5-0.7-0.7
		C141.9,136.7,142.4,136.5,142.8,136.2z"/>
	<path class="st20" d="M131,149.5c0.1,0.2,0.5,0.5,0.4,0.7s-0.7,0.3-1.1,0.5c-0.2-0.2-0.5-0.4-0.5-0.6
		C129.8,149.8,130,149.5,131,149.5z"/>
	<path class="st21" d="M44,31.6c0.1-0.9,0.8-1.3,2.2-1.4C48.1,32.4,45.6,31.8,44,31.6z"/>
	<path class="st12" d="M78,124.2c0-1.4,0-2.8,0-4.1C79.6,121.5,79.6,122.8,78,124.2z"/>
	<path class="st22" d="M106.8,161.3c0.1,0.2,0.5,0.5,0.4,0.7s-0.7,0.3-1.1,0.5c-0.2-0.2-0.5-0.4-0.5-0.6
		C105.7,161.6,105.9,161.3,106.8,161.3z"/>
	<path class="st12" d="M20.9,90.4c0.8-0.7,2.2-1.1,2.2-2.1C25.2,90.2,23.1,90.3,20.9,90.4z"/>
	<path class="st12" d="M23.1,88.3c-1.2-0.3-4.1,0.9-3.3-1.4C20.9,87.4,22,87.8,23.1,88.3z"/>
	<path class="st4" d="M110.9,189.9c-0.9-0.8-2.8-1.3-1.6-2.6c1.2-1.2,2-1,3.6-0.1c0.9,0.5,1.5-0.9,1-1.3c-3-2.4,0.7-3.3,2.5-4.9
		c1.9,1.6,1.6,4.9,6.6,2.8c0.8-0.3,2.2,0.5,1.6,0.8c-4.8,2-0.6,5.1-2.4,7.4c-0.6,0.8-0.3,1.9-0.9,2.7s0.3,2.6-2.2,2.3
		s-3.2-1.8-2.2-3.3c0.7-1.1,1.8-2,2.5-3c0.5-0.7-0.1-1.4-1.2-1.7c-1-0.3-2.3,0.1-2.2,0.6c0.4,3.5-3.8,5.2-7.4,7.4
		c-1.5-1.8-4.5-3.6,0.1-5.6C109.8,191.1,110,190.3,110.9,189.9z"/>
	<path class="st3" d="M192.7,127c-0.4,4.8-0.9,9.6-1.2,14.4c0,0.7,0.6,1.5-0.8,1.7c-1.3,0.2-2.2-0.5-2.4-1.1
		c-0.6-1.9-1.9-3.4-4.6-4.5c-1.2-0.5-1.3-1.2-0.3-1.7c2.6-1.4,2.2-3.9,5.1-5.2c2.4-1.1,0.7-2.3-0.1-3.4c-0.6-0.9-0.8-1.8,0.6-2.5
		c0.8-0.4,1.7-0.4,2.6-0.1C193.1,125.1,193.2,126,192.7,127z"/>
	<path class="st23" d="M82.8,156.8c2.5,0.2,3.2,1.2,1.8,2.4c-2.5,2.2-3.9,5.2-9.1,5.9c-1.5,0.2-2.9,1.9-4.4,0.1
		c-1.1-1.3-3-2.6-0.6-4C74,159.1,78.7,158.3,82.8,156.8z"/>
	<path class="st8" d="M147.5,174.2c1.4,0.3,2.6,0.6,3.5,0c1.4-0.9,2.5-2,5-1.1c2.9,1.1,1,2.9,0.5,3.6c-0.9,1.3-1.5,3.5-5.3,3.4
		c-1.6,0-3.3,0.4-3-1.3c0.1-0.6-0.4-1.3-1.6-1c-1.9,0.4-4.1,1.5-3.8-1C143,175,144.7,173.9,147.5,174.2z"/>
	<path class="st3" d="M172.3,132.4c0.4-0.9-0.7-2.5,2.1-2.2c2.4,0.2,3.7,1.3,3.4,3c-0.2,1.4-1.3,2.7-3.5,2.5
		C171,135.4,172.9,133.5,172.3,132.4z"/>
	<path class="st24" d="M97.7,136.5c-0.1,0.9,0,2.1-1.2,1.8c-3.1-0.7-3.4-3-5.6-4.4c-0.5-0.3,2.6-1.7,3.4-1.5
		C97.4,133,96.6,135.2,97.7,136.5z"/>
	<path class="st8" d="M159.6,173c-2.4-0.7-4.1-1.4-2.6-3.1c0.5-0.6,1.5-1.5,2.4-0.9C161,170,160.4,171.5,159.6,173z"/>
	<path class="st25" d="M196.7,122.2c1.7,0.1,2.8,0.7,2.9,1.9c0,0.6-0.3,1.3-1.4,1.1c-1.6-0.3-2.8-1-3.3-2.1
		C194.6,122.4,195.6,122.3,196.7,122.2z"/>
	<path class="st11" d="M68.3,183.9c1.3,0.2,1.9,0.8,1.8,1.5c-0.1,0.9-0.9,1.5-2.4,1.5c-1.4,0-1.7-0.7-1.6-1.4
		C66.1,184.6,66.7,184,68.3,183.9z"/>
	<path class="st23" d="M134.6,193.4c-2.3,0.2-4.3,0.2-5.3-1.1c-0.4-0.5,0.6-1.2,1.3-1.2C133,191,133.7,192.1,134.6,193.4z"/>
	<path class="st26" d="M159.3,138c0.1-0.8,0.7-1.2,2-1.3c1,0,1.9,0.2,1.7,0.9s-1,1.2-2.1,1.4C159.7,139.2,159.4,138.6,159.3,138z"/>
	<path class="st25" d="M84.3,194.4c-0.2,0.7-0.9,0.9-1.9,0.9c-0.7,0-1.5-0.1-1.6-0.7c0-0.9,1-1.1,2.1-1.1
		C83.7,193.5,84.2,193.9,84.3,194.4z"/>
	<path class="st26" d="M100.2,190.4c-0.6-0.4-1.1-0.6-1.1-0.9c-0.2-0.6,0.3-1.1,1.2-1.4c0.8-0.2,1.5,0.1,1.3,0.6
		C101.4,189.3,100.8,189.8,100.2,190.4z"/>
	<path class="st27" d="M99.9,174c4,0.9,1.9,1.8,0,2.8C99.9,175.8,99.9,174.9,99.9,174z"/>
	<path class="st28" d="M101,185c0.1-1.2-0.5-2.4,1.1-3.4c0.9,0.3,0.3,1,1.1,1.4c0,0.2,0,0.5,0,0.7C102.5,184.1,101.8,184.5,101,185z
		"/>
	<path class="st29" d="M110.9,189.9c-0.4,0.7,0.9,2.4-2.2,1.4C108.8,190.4,109.5,189.9,110.9,189.9z"/>
	<path class="st30" d="M138.7,185.5c0.2,0.3,0.6,0.6,0.5,0.7c-0.2,0.2-0.7,0.4-1.1,0.6c-0.2-0.2-0.5-0.4-0.4-0.6
		C137.9,185.9,138.3,185.7,138.7,185.5z"/>
	<path class="st31" d="M233.9,57.5c0.3-1.1,1.2-2,3-2.1c1.9-0.1,2.9,0.9,3.1,2c0.2,1.1-1,1.7-2.6,1.8
		C235.6,59.3,234.3,58.8,233.9,57.5z"/>
	<path class="st25" d="M360.4,161.9c-1.3-0.1-1.6-0.7-1.2-1.2c1-1.5,0.8-3.6,3.8-4.2c1-0.2,1.4,0.7,1.2,1.2
		C363.5,159.3,363.3,161.1,360.4,161.9z"/>
	<path class="st6" d="M353.3,32.4c1.5,0.1,3,0.4,3,1.7c0,0.9-1,1.6-2.4,1.4c-1.5-0.2-3.5-0.2-3.7-1.6
		C350.1,32.7,351.4,32.4,353.3,32.4z"/>
	<path class="st32" d="M297.3,57c0,0.7-0.3,1.4-1.7,1.4c-1.5,0-2.3-0.6-2.3-1.5c0-0.7,0.6-1.4,1.8-1.4
		C296.6,55.4,297.1,56.2,297.3,57z"/>
	<path class="st33" d="M312,46.1c-0.1-0.6,0.2-1,1-1.1c1.5-0.2,2.4,0.3,2.7,1.2c0.2,0.5,0,1-0.9,1C313.5,47.2,312.5,46.8,312,46.1z"
		/>
	<path class="st10" d="M352.9,38.8c1.2,0.1,1.4,0.5,1.3,1c-0.2,0.7-0.9,1.2-2.2,1.2c-0.8,0-1.3-0.4-1.1-0.9
		C351.1,39.4,352.1,39.1,352.9,38.8z"/>
	<path class="st34" d="M135,52.4c-0.9,0.9-0.9,1.8,0,2.8c-2-0.6-5.4,1.8-6-0.3C128.4,52.8,132.3,52.5,135,52.4z"/>
	<path class="st11" d="M114.6,45.5c0.5-1.2,1.6-1.9,3.3-2c1.1-0.1,2.4,0.2,2,1.1c-0.5,0.9-1.2,2-3.1,2
		C115.5,46.7,114.9,46.2,114.6,45.5z"/>
	<path class="st0" d="M125.1,42.7c2.4-0.1,4.6,0,4.4,2.1C127.9,44.2,123.4,46.1,125.1,42.7z"/>
	<path class="st35" d="M130.2,11.3c1.3,0.4,2.4,1,2.3,2c0,0.6-0.7,0.8-1.4,0.7c-1.4-0.4-2.4-1-2.4-2
		C128.7,11.4,129.3,11.2,130.2,11.3z"/>
	<path class="st0" d="M136.1,38.6c1.1,0.1,2.3,0.2,2.5,1c0.1,0.5-0.6,0.9-1.4,0.7C135.8,40,136.3,39.2,136.1,38.6L136.1,38.6z"/>
	<path class="st36" d="M142.8,38c0.4,0.5,0.7,0.7,0.7,1c0,0.4-0.5,0.6-1.1,0.5c-0.3-0.1-0.5-0.4-0.5-0.5
		C142,38.7,142.3,38.5,142.8,38z"/>
	<path class="st17" d="M159.2,4.7c-1.5,0.5-2.9,0.9-4.4,1.4c-0.6,0.4-1.2,0.8-1.1,1.4c0.7,0.3,1.5,0.6,2.2,0.8
		c1.5,0.4,2.3,1.1,1.8,2.1s-1.8,0.8-3.1,0.7c-1.4-0.1-2.8-0.1-4.2-0.1c1.2-1.7-1.1-2.9-1.6-4.4c-0.7-2.2,0.3-2.8,3.4-2.2
		C154.6,4.8,156.9,4.7,159.2,4.7z"/>
	<path class="st37" d="M153.7,7.5c-0.6,0-1.7,0.6-1.7-0.1c0-1,1.5-1.1,2.8-1.2C154.4,6.5,154,7,153.7,7.5z"/>
	<path class="st38" d="M184.4,8.4c0.5-0.2,0.9-0.4,1.2-0.5c0.3,0.2,0.7,0.5,0.7,0.7s-0.6,0.4-0.9,0.6C185.1,8.9,184.8,8.7,184.4,8.4
		z"/>
	<path class="st39" d="M106.5,176c0.4,0,0.7,0,1.1,0c0.3,0.8,1.8,1.5,0.1,2.4C105.9,177.9,106.8,176.9,106.5,176z"/>
	<path class="st40" d="M103.2,182.9c-0.4-0.5-0.7-0.9-1.1-1.4c0.1-0.4,0.5-1.1,1-0.9C104.9,181.3,102.9,182.2,103.2,182.9z"/>
	<path class="st41" d="M104.3,175.4c0.4,0.2,0.7,0.5,1.1,0.7c-0.3,0.7,0.6,1.6-0.9,2.2C103.1,177.3,104.7,176.3,104.3,175.4z"/>
	<path class="st42" d="M77.2,161.3c0.1,0.2,0.5,0.5,0.5,0.7c0,0.4-0.5,0.6-1.1,0.4c-0.3-0.1-0.5-0.4-0.5-0.6
		C76,161.6,76.3,161.2,77.2,161.3z"/>
</g>
<path class="st43" d="M139.1,71.8c4-5.6,12.5-16.7,21.7-23.6c12.8-9.6,24-9.6,24-9.6l-0.8-19.2l38.3-11.3c0,0,2.5,9.6,4.8,11.3
	c2.5,1.5,37.6,7.9,52.7,15.1c15.1,7.1,4.8,23.2,8,34.3c3.3,11.1-4,28-4,28l4.8,26.3l-15.9,16.1l2.3,23l-33.5,26.8
	c-8-2.1-22.8-5.2-29.5-5.2c-3.3,0-7.1,0.8-11.5,1.7l-6.1-14.6l-13.6-5.6l-12.6-0.8l-8.8-7.1V136l-11.1,3.3l-5.7-17.6h-7.1l-12.8-8
	l-11.9-21.5l4.8-16.9c0,0,1.7-1.9,3.3-4L139.1,71.8z"/>
</svg>
